Patient4_TMGait_0pt7_02_left_33_GRF.mot
version=1
nRows=32
nColumns=19
inDegrees=no
endheader
time	F1x	F1y	F1z	M1x	M1y	M1z	F2x	F2y	F2z	M2x	M2y	M2z	EC1x	EC1y	EC1z	EC2x	EC2y	EC2z
37.71	-5.993	15.1229	-8.7261	-3.9168	8.4313	21.557	-57.6187	670.6497	-36.9241	240.9908	75.0944	783.6688	-0.0592	0.0182	-0.0073	-0.0462	0.0165	0.9585
37.7216	-4.0286	11.4967	-5.8942	-3.0365	5.6745	16.2742	-42.989	680.5281	-45.0582	246.9908	76.7096	789.9438	-0.0592	0.0182	-0.0073	-0.0462	0.0165	0.9585
37.7331	-2.3875	8.4684	-3.4802	-2.3125	3.3123	11.8064	-29.3787	693.1132	-51.605	254.0519	77.0322	797.842	-0.0592	0.0182	-0.0073	-0.0462	0.0165	0.9585
37.7447	-1.1364	6.1938	-1.5973	-1.779	1.4638	8.384	-17.5077	708.356	-56.3411	261.9952	76.1911	807.5166	-0.0592	0.0182	-0.0073	-0.0462	0.0165	0.9585
37.7563	-0.31407	4.6817	-0.27756	-1.4352	0.15217	6.0572	-7.6507	725.756	-59.4362	270.5417	74.5003	818.7379	-0.0592	0.0182	-0.0073	-0.0462	0.0165	0.9585
37.7679	0.18212	3.796	0.56513	-1.2456	-0.69622	4.6268	0.22069	744.2992	-61.3923	279.2604	72.4626	830.7493	-0.0592	0.0182	-0.0073	-0.0462	0.0165	0.9585
37.7794	0.38041	3.3632	1.0384	-1.1616	-1.1966	3.8833	6.2818	762.651	-62.5803	287.6281	70.3784	842.4157	-0.0592	0.0182	-0.0073	-0.0462	0.0165	0.9585
37.791	0.4109	3.1631	1.2382	-1.1225	-1.4292	3.5107	10.8163	779.269	-63.4024	295.0632	68.5278	852.3371	-0.0592	0.0182	-0.0073	-0.0462	0.0165	0.9585
37.8026	0.30011	2.9974	1.2829	-1.0695	-1.5201	3.262	14.1593	792.7197	-64.0092	301.0413	66.927	859.168	-0.0592	0.0182	-0.0073	-0.0462	0.0165	0.9585
37.8141	0.14163	2.6312	1.2167	-0.93638	-1.5024	2.7975	16.655	801.8498	-64.5213	305.1506	65.5638	861.8037	-0.0592	0.0182	-0.0073	-0.0462	0.0165	0.9585
37.8257	-0.048738	1.8799	1.1229	-0.66153	-1.4584	1.8984	18.6333	805.8781	-64.9223	307.132	64.3005	859.4832	-0.0592	0.0182	-0.0073	-0.0462	0.0165	0.9585
37.8373	-0.2045	0.5383	0.99471	-0.18287	-1.3662	0.26721	20.3859	804.536	-65.1995	306.9138	63.0218	851.9474	-0.0592	0.0182	-0.0073	-0.0462	0.0165	0.9585
37.8489	-0.33088	-1.5192	0.86605	0.54333	-1.2575	-2.2426	22.1437	798.034	-65.3273	304.6066	61.6266	839.419	-0.0592	0.0182	-0.0073	-0.0462	0.0165	0.9585
37.8604	-0.35791	-4.3713	0.70151	1.5353	-1.0709	-5.7555	24.05	787.0098	-65.2775	300.4797	60.0393	822.563	-0.0592	0.0182	-0.0073	-0.0462	0.0165	0.9585
37.872	-0.2801	-7.905	0.48554	2.7511	-0.77612	-10.1106	26.1914	772.416	-65.0709	294.9127	58.2587	802.3669	-0.0592	0.0182	-0.0073	-0.0462	0.0165	0.9585
37.8836	-0.01064	-11.7592	0.18582	4.0579	-0.30192	-14.8779	28.5266	755.3119	-64.6864	288.3277	56.2827	779.9283	-0.0592	0.0182	-0.0073	-0.0462	0.0165	0.9585
37.8951	0.4874	-15.14	-0.24548	5.1807	0.42184	-19.0481	31.0055	736.7923	-64.1574	281.1481	54.1752	756.3843	-0.0592	0.0182	-0.0073	-0.0462	0.0165	0.9585
37.9067	1.3023	-16.7384	-0.80831	5.6686	1.4297	-21.012	33.5145	717.8149	-63.4705	273.748	51.9715	732.7205	-0.0592	0.0182	-0.0073	-0.0462	0.0165	0.9585
37.9183	2.4639	-14.5436	-1.5323	4.8339	2.7579	-18.2591	35.9393	699.1435	-62.6826	266.4198	49.7702	709.7143	-0.0592	0.0182	-0.0073	-0.0462	0.0165	0.9585
37.9299	3.9994	-5.8985	-2.335	1.7659	4.3196	-7.4843	38.1769	681.268	-61.808	259.3507	47.6232	687.8776	-0.0592	0.0182	-0.0073	-0.0462	0.0165	0.9585
37.9414	5.7988	12.5221	-3.1516	-4.6641	5.978	15.4773	40.1238	664.2824	-60.9059	252.579	45.619	667.3113	-0.0592	0.0182	-0.0073	-0.0462	0.0165	0.9585
37.953	7.6611	44.2425	-3.7355	-15.6459	7.354	55.0416	41.6956	647.8638	-59.9636	245.9838	43.7752	647.7126	-0.0592	0.0182	-0.0073	-0.0462	0.0165	0.9585
37.9646	9.1163	92.4048	-3.7888	-32.2217	7.8836	115.1564	42.7782	631.142	-58.9218	239.2481	42.0699	628.2407	-0.0592	0.0182	-0.0073	-0.0462	0.0165	0.9585
37.9761	9.4675	158.4855	-2.7937	-54.8439	6.6679	197.6822	43.2168	612.7526	-57.6222	231.8761	40.4036	607.5899	-0.0592	0.0182	-0.0073	-0.0462	0.0165	0.9585
37.9877	7.6468	240.5733	-0.14879	-82.783	2.5603	300.2856	42.8407	590.9371	-55.8283	223.2346	38.6034	584.0546	-0.0592	0.0182	-0.0073	-0.0462	0.0165	0.9585
37.9993	2.3973	331.2058	4.9249	-113.397	-5.8223	413.6525	41.4963	563.8569	-53.2849	212.6665	36.4781	555.8577	-0.0592	0.0182	-0.0073	-0.0462	0.0165	0.9585
38.0109	-6.4481	417.3556	13.2215	-142.1889	-19.3804	521.4678	39.1385	530.1187	-49.8071	199.6886	33.8707	521.6093	-0.0592	0.0182	-0.0073	-0.0462	0.0165	0.9585
38.0224	-16.5957	489.0351	24.6714	-165.8043	-37.06	610.8528	35.8794	489.4025	-45.4303	184.2079	30.7894	480.9169	-0.0592	0.0182	-0.0073	-0.0462	0.0165	0.9585
38.034	-26.9031	546.1717	37.1682	-184.2565	-56.0138	681.441	31.9667	442.6983	-40.3663	166.5738	27.3501	434.6601	-0.0592	0.0182	-0.0073	-0.0462	0.0165	0.9585
38.0456	-35.8494	591.9959	49.6771	-198.7599	-74.3605	736.9912	27.6639	391.4003	-35.1495	147.2777	23.9484	384.1021	-0.0592	0.0182	-0.0073	-0.0462	0.0165	0.9585
38.0571	-42.9193	630.2363	60.4515	-210.7158	-89.8508	782.2308	23.2204	337.137	-30.1467	126.8922	20.8214	330.7715	-0.0592	0.0182	-0.0073	-0.0462	0.0165	0.9585
38.0687	-47.38	662.712	68.6731	-220.8509	-101.2348	819.3774	18.6913	281.6938	-25.5075	106.0695	18.0697	276.3928	-0.0592	0.0182	-0.0073	-0.0462	0.0165	0.9585
